<mxfile host="app.diagrams.net" modified="2022-03-04T02:58:14.828Z" agent="5.0 (Windows NT 10.0; Win64; x64) AppleWebKit/537.36 (KHTML, like Gecko) Chrome/98.0.4758.102 Safari/537.36" etag="uH9vKEMemTUtXiKD26Ig" version="16.6.5" type="github">
  <diagram id="prtHgNgQTEPvFCAcTncT" name="Page-1">
    <mxGraphModel dx="1038" dy="568" grid="1" gridSize="10" guides="1" tooltips="1" connect="1" arrows="1" fold="1" page="1" pageScale="1" pageWidth="827" pageHeight="1169" math="0" shadow="0">
      <root>
        <mxCell id="0" />
        <mxCell id="1" parent="0" />
        <mxCell id="iCyHkljeh6y5lovYUsBy-7" value="SMT排程系统" style="swimlane;" vertex="1" parent="1">
          <mxGeometry x="150" y="40" width="559" height="490" as="geometry">
            <mxRectangle x="171" y="50" width="110" height="23" as="alternateBounds" />
          </mxGeometry>
        </mxCell>
        <mxCell id="iCyHkljeh6y5lovYUsBy-2" value="数据源" style="swimlane;" vertex="1" parent="iCyHkljeh6y5lovYUsBy-7">
          <mxGeometry x="9" y="350" width="541" height="130" as="geometry" />
        </mxCell>
        <mxCell id="iCyHkljeh6y5lovYUsBy-4" value="管理端批数据&lt;br&gt;（表格或其他管理软件的数据库）" style="rounded=1;whiteSpace=wrap;html=1;" vertex="1" parent="iCyHkljeh6y5lovYUsBy-2">
          <mxGeometry x="300" y="35" width="230" height="85" as="geometry" />
        </mxCell>
        <mxCell id="iCyHkljeh6y5lovYUsBy-5" value="&lt;span&gt;机器实时数据（数据库）&lt;/span&gt;" style="rounded=1;whiteSpace=wrap;html=1;" vertex="1" parent="iCyHkljeh6y5lovYUsBy-2">
          <mxGeometry x="20" y="35" width="210" height="85" as="geometry" />
        </mxCell>
        <mxCell id="iCyHkljeh6y5lovYUsBy-9" value="网页管理前端" style="swimlane;" vertex="1" parent="iCyHkljeh6y5lovYUsBy-7">
          <mxGeometry x="9" y="30" width="211" height="310" as="geometry" />
        </mxCell>
        <mxCell id="iCyHkljeh6y5lovYUsBy-11" value="数据增删改查" style="rounded=1;whiteSpace=wrap;html=1;" vertex="1" parent="iCyHkljeh6y5lovYUsBy-9">
          <mxGeometry x="10" y="30" width="120" height="60" as="geometry" />
        </mxCell>
        <mxCell id="iCyHkljeh6y5lovYUsBy-12" value="加工时间预测" style="rounded=1;whiteSpace=wrap;html=1;" vertex="1" parent="iCyHkljeh6y5lovYUsBy-9">
          <mxGeometry x="10" y="100" width="120" height="60" as="geometry" />
        </mxCell>
        <mxCell id="iCyHkljeh6y5lovYUsBy-13" value="用户权限配置" style="rounded=1;whiteSpace=wrap;html=1;" vertex="1" parent="iCyHkljeh6y5lovYUsBy-9">
          <mxGeometry x="10" y="170" width="120" height="60" as="geometry" />
        </mxCell>
        <mxCell id="iCyHkljeh6y5lovYUsBy-14" value="交互式排程" style="rounded=1;whiteSpace=wrap;html=1;" vertex="1" parent="iCyHkljeh6y5lovYUsBy-9">
          <mxGeometry x="10" y="240" width="120" height="60" as="geometry" />
        </mxCell>
        <mxCell id="iCyHkljeh6y5lovYUsBy-18" value="批量&lt;br&gt;导入&lt;br&gt;导出&lt;br&gt;操作" style="rounded=1;whiteSpace=wrap;html=1;" vertex="1" parent="iCyHkljeh6y5lovYUsBy-9">
          <mxGeometry x="150" y="30" width="40" height="270" as="geometry" />
        </mxCell>
        <mxCell id="iCyHkljeh6y5lovYUsBy-10" value="优化算法后端" style="swimlane;" vertex="1" parent="iCyHkljeh6y5lovYUsBy-7">
          <mxGeometry x="240" y="30" width="310" height="310" as="geometry" />
        </mxCell>
        <mxCell id="iCyHkljeh6y5lovYUsBy-15" value="基础排程计算&lt;br&gt;（可配置维护时间）" style="rounded=1;whiteSpace=wrap;html=1;" vertex="1" parent="iCyHkljeh6y5lovYUsBy-10">
          <mxGeometry x="19" y="240" width="120" height="60" as="geometry" />
        </mxCell>
        <mxCell id="iCyHkljeh6y5lovYUsBy-16" value="单元测试&lt;br&gt;保证结果完整有效" style="rounded=1;whiteSpace=wrap;html=1;" vertex="1" parent="iCyHkljeh6y5lovYUsBy-10">
          <mxGeometry x="19" y="30" width="120" height="60" as="geometry" />
        </mxCell>
        <mxCell id="iCyHkljeh6y5lovYUsBy-17" value="预测模块&lt;br&gt;训练和调用" style="rounded=1;whiteSpace=wrap;html=1;" vertex="1" parent="iCyHkljeh6y5lovYUsBy-10">
          <mxGeometry x="170" y="240" width="120" height="60" as="geometry" />
        </mxCell>
        <mxCell id="iCyHkljeh6y5lovYUsBy-19" value="定制化约束+通用约束配置" style="rounded=1;whiteSpace=wrap;html=1;" vertex="1" parent="iCyHkljeh6y5lovYUsBy-10">
          <mxGeometry x="19" y="170" width="120" height="60" as="geometry" />
        </mxCell>
        <mxCell id="iCyHkljeh6y5lovYUsBy-20" value="定制化目标值&lt;br&gt;通用目标值&lt;br&gt;配置" style="rounded=1;whiteSpace=wrap;html=1;" vertex="1" parent="iCyHkljeh6y5lovYUsBy-10">
          <mxGeometry x="19" y="100" width="120" height="60" as="geometry" />
        </mxCell>
        <mxCell id="iCyHkljeh6y5lovYUsBy-21" value="可行初始解&lt;br&gt;（全流程预计3分钟）" style="rounded=1;whiteSpace=wrap;html=1;" vertex="1" parent="iCyHkljeh6y5lovYUsBy-10">
          <mxGeometry x="170" y="170" width="120" height="60" as="geometry" />
        </mxCell>
        <mxCell id="iCyHkljeh6y5lovYUsBy-22" value="深度优化解&lt;br&gt;（可选，10-30分钟）" style="rounded=1;whiteSpace=wrap;html=1;" vertex="1" parent="iCyHkljeh6y5lovYUsBy-10">
          <mxGeometry x="170" y="100" width="120" height="60" as="geometry" />
        </mxCell>
        <mxCell id="iCyHkljeh6y5lovYUsBy-23" value="异常，重点数据&lt;br&gt;分析与反馈" style="rounded=1;whiteSpace=wrap;html=1;" vertex="1" parent="iCyHkljeh6y5lovYUsBy-10">
          <mxGeometry x="170" y="30" width="120" height="60" as="geometry" />
        </mxCell>
      </root>
    </mxGraphModel>
  </diagram>
</mxfile>
